<svg id="Layer_1" data-name="Layer 1" xmlns="http://www.w3.org/2000/svg" viewBox="0 0 597.04 108.19"><defs><style>.cls-1{fill:#231f20;}</style></defs><path class="cls-1" d="M920.24,313.71c-15.18,6.63-27.21,20.15-39.35,31.23-2.49-5.53-7.53-9.11-14.54-11.68-14.71-5.4-31.6,3.42-43.15,11.68-10.14,7.24-18.87,16.25-29.05,23.47a107.76,107.76,0,0,1-9.23,5.83c-4.17-3.35-8.18-7-12.1-10.77-21.38-20.51-46.51-29.58-75.71-21.11a63.38,63.38,0,0,0-21.67,11.42c-17.63-13.56-40.75-17.84-62.82-12.27-13.62,3.44-24.4,12.55-34.36,22-4,3.83-8,7.4-12.13,10.62q-4.74-2.73-9.2-5.68c-20.19-13.35-52.76-53.09-80.77-31.13a19.42,19.42,0,0,0-6,7.47q-6.31-5.47-12.58-11.11c-10.43-9.37-21.7-21.51-36.73-22.3-13.63-.71-27.68,3.81-35.75,15.58-8.34,12.17-12.47,31.43-1.36,43.62,13,14.3,32.54,12.8,49.47,7a1.56,1.56,0,0,0-.8-3c-10.07,1.51-20,2.88-30.06.86-15-3-20.45-18.57-18.2-32.1,2.1-12.6,12.83-21.58,24.34-25.26,16.82-5.38,30.28,6.19,41.71,16.51,6.16,5.56,12.28,11,18.44,16.34-.39,5.12,1,10.65,3,16.21,5.23,14.88,14,23.14,28.75,28.42A61,61,0,0,0,536,397.24q3.29,1.59,6.66,3.09c31.75,14.08,70.23,24.4,104.68,15.43,7.6-2,19.09-7.93,28.31-15.78,22.35,20.45,54,21.42,83.19,16a228,228,0,0,0,56.33-18.65q2.72.49,5.45.77c28.27,2.72,60.63-10.09,62-43a29.75,29.75,0,0,0-.11-3.94c2.7-2.45,5.4-4.91,8.11-7.35,13.13-11.85,25.11-26,44-26.83,21.36-.91,35.78,20.75,32.17,40.14-4.28,23-31.14,20-48.13,17.42a1.56,1.56,0,0,0-.79,3c24.75,8.5,54.56,3.82,56.14-27.32C975.35,323.72,944.12,303.27,920.24,313.71ZM805.83,369.3c16.9-12.93,42.88-43,66.29-24.6a9.22,9.22,0,0,1,3.29,5.1c-15.3,13.37-31.25,25.35-49.11,35.28q-4.69,2.61-9.7,5.12c-9.19-1.76-17.42-5.78-25.05-11C796.47,376.14,801.23,372.82,805.83,369.3Zm-130,20.81c-7.91-9.28-6-19.52.81-27.49,5.46,5.51,7.76,12.34,3.57,20.44A53.48,53.48,0,0,1,675.81,390.11ZM479,344.7c8.73-10.68,27.93-3.6,37.31,1.5,10.73,5.82,19.58,15.42,29,23.1a136.71,136.71,0,0,0,13.86,9.9,69.09,69.09,0,0,1-24.87,10.6c-21-10.63-39.67-24.43-57.76-39.67A12.6,12.6,0,0,1,479,344.7Zm43.1,46.45a59.64,59.64,0,0,1-30-7.8c-6.42-3.56-14.26-15.46-15.78-26,15.06,12.54,30.59,24.05,47.82,33.68C523.45,391.07,522.77,391.13,522.06,391.15Zm40.11,10.34c-6.11-2-12-4.34-17.73-6.87a97,97,0,0,0,21.35-11.5c21,11.59,45.86,18.35,68.66,14.51,14.43-2.42,29.22-18.59,11-28.66-13.49-7.43-30.38-4-37.78,10-1.39,2.64,2.23,4.5,3.92,2.23,6.47-8.65,17.66-10.79,27.35-6.72s.25,13.52-6.49,15.39c-5.26,1.45-11,1.05-16.41.75-14.86-.85-29.62-5.91-43.11-12.84,3.63-2.92,7.12-6,10.44-9.23,14-13.46,28.44-22,48.16-22.55,8.37-.26,27,3.82,39.26,11.88-1.78,1.69-3.51,3.44-5.12,5.28-8.68,9.94-3.65,21.63,4,30.64.51.6,1,1.12,1.57,1.7C644.77,422.28,593.61,411.87,562.17,401.49Zm139.57,6.3a60.85,60.85,0,0,1-20.92-12.69c9.21-9.73,13.84-21.4,4.64-32-1.46-1.66-3-3.21-4.57-4.7.79-.65,1.6-1.27,2.45-1.87,15.37-10.73,35.53-12.72,53.32-8.2,17,4.32,28.68,18.18,41.15,29.6a153.46,153.46,0,0,1-18,7.32c-13.12,4.44-27.37,6.92-41.12,4.56q-9.46-1-10.48-12.72a18.45,18.45,0,0,1,8.62-4.23c8.31-2.33,17.72,1.58,22.72,8.28,1.7,2.27,5.32.41,3.92-2.23-4.59-8.7-12.08-12.78-21.67-14-7.83-1-22.76,4.2-24.21,13.47-4.86,31,54.24,17.88,68.36,13.05a122.07,122.07,0,0,0,18.29-8.1A75,75,0,0,0,806.43,395C773.84,409.65,734.76,418.86,701.74,407.79ZM859,383.35c-8.38,5.87-20.07,7.45-30,7.8-.6,0-1.19,0-1.78,0a272.49,272.49,0,0,0,33-21.17c5.18-3.89,10.15-8.06,15-12.34C872.78,368.08,863.36,380.28,859,383.35Z" transform="translate(-377 -310.93)"/></svg>